<?xml version="1.0" standalone="no"?>
<!DOCTYPE svg PUBLIC "-//W3C//DTD SVG 20010904//EN"
 "http://www.w3.org/TR/2001/REC-SVG-20010904/DTD/svg10.dtd">
<svg version="1.0" xmlns="http://www.w3.org/2000/svg"
 width="64.000000pt" height="64.000000pt" viewBox="0 0 64.000000 64.000000"
 preserveAspectRatio="xMidYMid meet">

<g transform="translate(0.000000,64.000000) scale(0.100000,-0.100000)"
fill="#000000" stroke="none">
<path d="M27 612 c-11 -12 -17 -36 -17 -70 l0 -52 310 0 310 0 0 53 c0 89 8
87 -312 87 -254 0 -276 -1 -291 -18z m98 -52 c0 -18 -33 -26 -47 -12 -6 6 -7
15 -3 22 10 16 50 8 50 -10z m80 0 c0 -18 -33 -26 -47 -12 -6 6 -7 15 -3 22
10 16 50 8 50 -10z m360 0 c0 -12 -18 -16 -94 -18 -92 -3 -120 5 -106 27 4 8
40 11 103 9 78 -2 97 -6 97 -18z"/>
<path d="M10 247 c0 -185 2 -205 18 -220 16 -15 52 -17 294 -17 254 0 276 1
291 18 15 16 17 47 17 220 l0 202 -310 0 -310 0 0 -203z m356 110 c54 -46 23
-130 -47 -130 -36 0 -79 40 -79 74 0 26 53 79 79 79 11 0 32 -11 47 -23z m24
-186 c40 -21 75 -64 66 -80 -10 -15 -262 -15 -272 0 -19 31 75 99 136 99 19 0
51 -8 70 -19z"/>
</g>
</svg>
